<svg id="visual" viewBox="0 0 900 600" width="900" height="600" xmlns="http://www.w3.org/2000/svg" xmlns:xlink="http://www.w3.org/1999/xlink" version="1.1"><g stroke-width="1" stroke-linejoin="bevel"><path d="M438.4 360.3L425.4 415L449.6 400Z" fill="#b83f55" stroke="#b83f55"></path><path d="M425.4 415L447.6 444.7L449.6 400Z" fill="#b83f55" stroke="#b83f55"></path><path d="M438.4 360.3L358.2 365.3L425.4 415Z" fill="#ad3b50" stroke="#ad3b50"></path><path d="M390.4 505.7L439.6 496.3L447.6 444.7Z" fill="#e38392" stroke="#e38392"></path><path d="M358.2 365.3L336.2 385L425.4 415Z" fill="#b83f55" stroke="#b83f55"></path><path d="M510.8 419L514.6 380.3L449.6 400Z" fill="#ad3b50" stroke="#ad3b50"></path><path d="M449.6 400L514.6 380.3L438.4 360.3Z" fill="#ad3b50" stroke="#ad3b50"></path><path d="M447.6 444.7L510.8 419L449.6 400Z" fill="#983346" stroke="#983346"></path><path d="M390.4 505.7L447.6 444.7L425.4 415Z" fill="#d3546a" stroke="#d3546a"></path><path d="M447.6 444.7L535.8 433.7L510.8 419Z" fill="#c3435b" stroke="#c3435b"></path><path d="M439.6 496.3L535.8 433.7L447.6 444.7Z" fill="#db6c7e" stroke="#db6c7e"></path><path d="M510.8 419L535.8 433.7L514.6 380.3Z" fill="#a3374b" stroke="#a3374b"></path><path d="M336.2 385L390.4 505.7L425.4 415Z" fill="#983346" stroke="#983346"></path><path d="M336.2 385L297.9 434L390.4 505.7Z" fill="#a3374b" stroke="#a3374b"></path><path d="M336.2 508.7L367.2 518.3L390.4 505.7Z" fill="#d3546a" stroke="#d3546a"></path><path d="M448.4 579.3L512.8 545.3L439.6 496.3Z" fill="#ce4760" stroke="#ce4760"></path><path d="M521.6 253.7L385.4 245.7L438.4 360.3Z" fill="#983346" stroke="#983346"></path><path d="M438.4 360.3L385.4 245.7L358.2 365.3Z" fill="#d76074" stroke="#d76074"></path><path d="M358.2 365.3L314.2 276.7L336.2 385Z" fill="#c3435b" stroke="#c3435b"></path><path d="M336.2 385L248.7 385L297.9 434Z" fill="#df7888" stroke="#df7888"></path><path d="M385.4 245.7L367.2 249L358.2 365.3Z" fill="#ad3b50" stroke="#ad3b50"></path><path d="M297.9 434L336.2 508.7L390.4 505.7Z" fill="#ad3b50" stroke="#ad3b50"></path><path d="M367.2 249L314.2 276.7L358.2 365.3Z" fill="#b83f55" stroke="#b83f55"></path><path d="M586.1 336.3L561.8 301.3L514.6 380.3Z" fill="#df7888" stroke="#df7888"></path><path d="M514.6 380.3L521.6 253.7L438.4 360.3Z" fill="#db6c7e" stroke="#db6c7e"></path><path d="M561.8 301.3L521.6 253.7L514.6 380.3Z" fill="#ad3b50" stroke="#ad3b50"></path><path d="M535.8 433.7L586.1 336.3L514.6 380.3Z" fill="#983346" stroke="#983346"></path><path d="M252.9 313.3L248.7 385L336.2 385Z" fill="#c3435b" stroke="#c3435b"></path><path d="M297.9 434L288.9 499.3L336.2 508.7Z" fill="#c3435b" stroke="#c3435b"></path><path d="M250.9 423.7L288.9 499.3L297.9 434Z" fill="#df7888" stroke="#df7888"></path><path d="M455.4 600L448.4 579.3L346.2 600Z" fill="#a3374b" stroke="#a3374b"></path><path d="M248.7 385L250.9 423.7L297.9 434Z" fill="#a3374b" stroke="#a3374b"></path><path d="M448.4 579.3L439.6 496.3L390.4 505.7Z" fill="#a3374b" stroke="#a3374b"></path><path d="M439.6 496.3L512.8 545.3L535.8 433.7Z" fill="#c3435b" stroke="#c3435b"></path><path d="M535.8 433.7L617.1 433.7L586.1 336.3Z" fill="#ad3b50" stroke="#ad3b50"></path><path d="M314.2 276.7L252.9 313.3L336.2 385Z" fill="#d3546a" stroke="#d3546a"></path><path d="M385.4 245.7L404.4 195L367.2 249Z" fill="#e38392" stroke="#e38392"></path><path d="M298.9 168L260.9 255.7L314.2 276.7Z" fill="#ce4760" stroke="#ce4760"></path><path d="M314.2 276.7L260.9 255.7L252.9 313.3Z" fill="#db6c7e" stroke="#db6c7e"></path><path d="M504.6 204L404.4 195L385.4 245.7Z" fill="#a3374b" stroke="#a3374b"></path><path d="M448.4 579.3L367.2 518.3L346.2 600Z" fill="#ce4760" stroke="#ce4760"></path><path d="M367.2 518.3L448.4 579.3L390.4 505.7Z" fill="#d76074" stroke="#d76074"></path><path d="M561.8 301.3L553.8 236.7L521.6 253.7Z" fill="#e38392" stroke="#e38392"></path><path d="M521.6 253.7L504.6 204L385.4 245.7Z" fill="#ad3b50" stroke="#ad3b50"></path><path d="M578.1 228L553.8 236.7L616.1 272.7Z" fill="#983346" stroke="#983346"></path><path d="M575.1 519.3L617.1 433.7L535.8 433.7Z" fill="#d3546a" stroke="#d3546a"></path><path d="M553.8 236.7L504.6 204L521.6 253.7Z" fill="#c3435b" stroke="#c3435b"></path><path d="M530.8 600L575.1 519.3L512.8 545.3Z" fill="#b83f55" stroke="#b83f55"></path><path d="M512.8 545.3L575.1 519.3L535.8 433.7Z" fill="#a3374b" stroke="#a3374b"></path><path d="M298.9 168L314.2 276.7L367.2 249Z" fill="#d3546a" stroke="#d3546a"></path><path d="M504.6 204L426.4 172.3L404.4 195Z" fill="#c3435b" stroke="#c3435b"></path><path d="M404.4 195L298.9 168L367.2 249Z" fill="#db6c7e" stroke="#db6c7e"></path><path d="M346.2 600L367.2 518.3L336.2 508.7Z" fill="#983346" stroke="#983346"></path><path d="M448.4 579.3L455.4 600L512.8 545.3Z" fill="#983346" stroke="#983346"></path><path d="M616.1 272.7L553.8 236.7L561.8 301.3Z" fill="#a3374b" stroke="#a3374b"></path><path d="M553.8 236.7L566.8 152L504.6 204Z" fill="#df7888" stroke="#df7888"></path><path d="M504.6 204L523.6 136.3L426.4 172.3Z" fill="#db6c7e" stroke="#db6c7e"></path><path d="M616.1 272.7L561.8 301.3L586.1 336.3Z" fill="#db6c7e" stroke="#db6c7e"></path><path d="M617.1 433.7L644.1 353L586.1 336.3Z" fill="#ce4760" stroke="#ce4760"></path><path d="M644.1 353L616.1 272.7L586.1 336.3Z" fill="#ad3b50" stroke="#ad3b50"></path><path d="M279.9 600L346.2 600L336.2 508.7Z" fill="#b83f55" stroke="#b83f55"></path><path d="M455.4 600L530.6 600L512.8 545.3Z" fill="#df7888" stroke="#df7888"></path><path d="M530.6 600L530.8 600L512.8 545.3Z" fill="#c3435b" stroke="#c3435b"></path><path d="M682.3 504.3L661.3 428.7L617.1 433.7Z" fill="#a3374b" stroke="#a3374b"></path><path d="M617.1 433.7L675.3 392L644.1 353Z" fill="#db6c7e" stroke="#db6c7e"></path><path d="M682.3 504.3L617.1 433.7L575.1 519.3Z" fill="#b83f55" stroke="#b83f55"></path><path d="M260.9 255.7L196.7 287.3L252.9 313.3Z" fill="#a3374b" stroke="#a3374b"></path><path d="M252.9 313.3L169.7 298.7L248.7 385Z" fill="#db6c7e" stroke="#db6c7e"></path><path d="M248.7 385L178.7 445.7L250.9 423.7Z" fill="#db6c7e" stroke="#db6c7e"></path><path d="M225.7 205L196.7 287.3L260.9 255.7Z" fill="#df7888" stroke="#df7888"></path><path d="M340.2 95.3L298.9 168L404.4 195Z" fill="#db6c7e" stroke="#db6c7e"></path><path d="M661.3 428.7L675.3 392L617.1 433.7Z" fill="#d76074" stroke="#d76074"></path><path d="M644.1 353L682.3 238.7L616.1 272.7Z" fill="#b83f55" stroke="#b83f55"></path><path d="M126.5 387L178.7 445.7L248.7 385Z" fill="#b83f55" stroke="#b83f55"></path><path d="M250.9 423.7L176.5 509.7L288.9 499.3Z" fill="#df7888" stroke="#df7888"></path><path d="M288.9 499.3L279.9 600L336.2 508.7Z" fill="#e38392" stroke="#e38392"></path><path d="M234.7 563.3L279.9 600L288.9 499.3Z" fill="#b83f55" stroke="#b83f55"></path><path d="M176.5 509.7L234.7 563.3L288.9 499.3Z" fill="#a3374b" stroke="#a3374b"></path><path d="M298.9 168L225.7 205L260.9 255.7Z" fill="#a3374b" stroke="#a3374b"></path><path d="M566.8 152L523.6 136.3L504.6 204Z" fill="#d76074" stroke="#d76074"></path><path d="M426.4 172.3L340.2 95.3L404.4 195Z" fill="#c3435b" stroke="#c3435b"></path><path d="M566.8 152L553.8 236.7L578.1 228Z" fill="#c3435b" stroke="#c3435b"></path><path d="M161.5 279.7L169.7 298.7L196.7 287.3Z" fill="#983346" stroke="#983346"></path><path d="M196.7 287.3L169.7 298.7L252.9 313.3Z" fill="#983346" stroke="#983346"></path><path d="M682.3 238.7L608.1 183.3L616.1 272.7Z" fill="#ce4760" stroke="#ce4760"></path><path d="M616.1 272.7L608.1 183.3L578.1 228Z" fill="#ad3b50" stroke="#ad3b50"></path><path d="M608.1 183.3L566.8 152L578.1 228Z" fill="#ce4760" stroke="#ce4760"></path><path d="M178.7 445.7L176.5 509.7L250.9 423.7Z" fill="#ce4760" stroke="#ce4760"></path><path d="M114.2 445L176.5 509.7L178.7 445.7Z" fill="#a3374b" stroke="#a3374b"></path><path d="M225.7 205L161.5 279.7L196.7 287.3Z" fill="#e38392" stroke="#e38392"></path><path d="M169.7 298.7L126.5 387L248.7 385Z" fill="#b83f55" stroke="#b83f55"></path><path d="M807.5 444L782.8 364L675.3 392Z" fill="#a3374b" stroke="#a3374b"></path><path d="M650.1 600L682.3 504.3L575.1 519.3Z" fill="#e38392" stroke="#e38392"></path><path d="M747.5 337.3L710.3 351.3L782.8 364Z" fill="#d3546a" stroke="#d3546a"></path><path d="M675.3 392L710.3 351.3L644.1 353Z" fill="#ad3b50" stroke="#ad3b50"></path><path d="M710.3 351.3L682.3 238.7L644.1 353Z" fill="#a3374b" stroke="#a3374b"></path><path d="M608.1 183.3L574.8 89.3L566.8 152Z" fill="#ce4760" stroke="#ce4760"></path><path d="M113.5 378.3L126.5 387L108.2 330.3Z" fill="#e38392" stroke="#e38392"></path><path d="M391.4 18.7L340.2 95.3L426.4 172.3Z" fill="#d3546a" stroke="#d3546a"></path><path d="M298.9 168L219.7 121.3L225.7 205Z" fill="#983346" stroke="#983346"></path><path d="M108.2 330.3L126.5 387L169.7 298.7Z" fill="#a3374b" stroke="#a3374b"></path><path d="M126.5 387L114.2 445L178.7 445.7Z" fill="#b83f55" stroke="#b83f55"></path><path d="M530.8 600L650.1 600L575.1 519.3Z" fill="#ad3b50" stroke="#ad3b50"></path><path d="M650.1 600L653.3 600L682.3 504.3Z" fill="#db6c7e" stroke="#db6c7e"></path><path d="M94.2 442.7L114.2 445L126.5 387Z" fill="#e38392" stroke="#e38392"></path><path d="M164.5 600L187.7 600L176.5 509.7Z" fill="#ce4760" stroke="#ce4760"></path><path d="M176.5 509.7L187.7 600L234.7 563.3Z" fill="#b83f55" stroke="#b83f55"></path><path d="M234.7 563.3L187.7 600L279.9 600Z" fill="#e38392" stroke="#e38392"></path><path d="M161.5 279.7L108.2 330.3L169.7 298.7Z" fill="#ce4760" stroke="#ce4760"></path><path d="M113.5 378.3L94.2 442.7L126.5 387Z" fill="#c3435b" stroke="#c3435b"></path><path d="M78.2 287.7L108.2 330.3L161.5 279.7Z" fill="#983346" stroke="#983346"></path><path d="M782.8 364L710.3 351.3L675.3 392Z" fill="#c3435b" stroke="#c3435b"></path><path d="M710.3 351.3L747.5 337.3L682.3 238.7Z" fill="#e38392" stroke="#e38392"></path><path d="M675.3 392L661.3 428.7L781.8 483.3Z" fill="#ad3b50" stroke="#ad3b50"></path><path d="M301.2 73.7L256.9 100.3L298.9 168Z" fill="#ad3b50" stroke="#ad3b50"></path><path d="M225.7 205L114.5 218L161.5 279.7Z" fill="#c3435b" stroke="#c3435b"></path><path d="M601.1 51.7L574.8 89.3L700.3 64.7Z" fill="#a3374b" stroke="#a3374b"></path><path d="M566.8 152L574.8 89.3L523.6 136.3Z" fill="#c3435b" stroke="#c3435b"></path><path d="M463.4 0L391.4 18.7L426.4 172.3Z" fill="#e38392" stroke="#e38392"></path><path d="M256.9 100.3L219.7 121.3L298.9 168Z" fill="#db6c7e" stroke="#db6c7e"></path><path d="M0 419L94.2 442.7L113.5 378.3Z" fill="#db6c7e" stroke="#db6c7e"></path><path d="M114.2 445L91.5 491.3L176.5 509.7Z" fill="#ce4760" stroke="#ce4760"></path><path d="M324.9 24.7L301.2 73.7L340.2 95.3Z" fill="#e38392" stroke="#e38392"></path><path d="M340.2 95.3L301.2 73.7L298.9 168Z" fill="#e38392" stroke="#e38392"></path><path d="M205.7 0L163.7 107.7L219.7 121.3Z" fill="#df7888" stroke="#df7888"></path><path d="M91.5 491.3L164.5 600L176.5 509.7Z" fill="#ad3b50" stroke="#ad3b50"></path><path d="M682.3 238.7L701.3 192L608.1 183.3Z" fill="#d3546a" stroke="#d3546a"></path><path d="M756.5 227L701.3 192L682.3 238.7Z" fill="#d3546a" stroke="#d3546a"></path><path d="M94.2 442.7L91.5 491.3L114.2 445Z" fill="#d3546a" stroke="#d3546a"></path><path d="M163.7 107.7L114.5 218L225.7 205Z" fill="#c3435b" stroke="#c3435b"></path><path d="M0 330.3L0 419L113.5 378.3Z" fill="#983346" stroke="#983346"></path><path d="M781.8 483.3L661.3 428.7L682.3 504.3Z" fill="#a3374b" stroke="#a3374b"></path><path d="M747.5 337.3L756.5 227L682.3 238.7Z" fill="#b83f55" stroke="#b83f55"></path><path d="M86.2 243L78.2 287.7L161.5 279.7Z" fill="#d3546a" stroke="#d3546a"></path><path d="M0 523.3L37.2 549.3L91.5 491.3Z" fill="#df7888" stroke="#df7888"></path><path d="M782.8 364L786.8 344.3L747.5 337.3Z" fill="#a3374b" stroke="#a3374b"></path><path d="M114.5 218L86.2 243L161.5 279.7Z" fill="#df7888" stroke="#df7888"></path><path d="M0 245L86.2 243L0 112.3Z" fill="#c3435b" stroke="#c3435b"></path><path d="M558.8 25.7L524.6 32.7L574.8 89.3Z" fill="#b83f55" stroke="#b83f55"></path><path d="M574.8 89.3L524.6 32.7L523.6 136.3Z" fill="#df7888" stroke="#df7888"></path><path d="M785.5 256.7L756.5 227L747.5 337.3Z" fill="#a3374b" stroke="#a3374b"></path><path d="M700.3 64.7L574.8 89.3L608.1 183.3Z" fill="#d3546a" stroke="#d3546a"></path><path d="M463.4 0L426.4 172.3L523.6 136.3Z" fill="#983346" stroke="#983346"></path><path d="M301.2 73.7L205.7 0L256.9 100.3Z" fill="#b83f55" stroke="#b83f55"></path><path d="M799.5 499.7L781.8 483.3L682.3 504.3Z" fill="#e38392" stroke="#e38392"></path><path d="M782.8 364L900 369L786.8 344.3Z" fill="#ad3b50" stroke="#ad3b50"></path><path d="M391.4 18.7L324.9 24.7L340.2 95.3Z" fill="#df7888" stroke="#df7888"></path><path d="M219.7 121.3L163.7 107.7L225.7 205Z" fill="#983346" stroke="#983346"></path><path d="M721.3 133.3L608.1 183.3L701.3 192Z" fill="#ad3b50" stroke="#ad3b50"></path><path d="M205.7 0L219.7 121.3L256.9 100.3Z" fill="#d76074" stroke="#d76074"></path><path d="M786.8 344.3L785.5 256.7L747.5 337.3Z" fill="#db6c7e" stroke="#db6c7e"></path><path d="M781.8 147.3L721.3 133.3L701.3 192Z" fill="#b83f55" stroke="#b83f55"></path><path d="M601.1 51.7L558.8 25.7L574.8 89.3Z" fill="#df7888" stroke="#df7888"></path><path d="M524.6 32.7L463.4 0L523.6 136.3Z" fill="#ce4760" stroke="#ce4760"></path><path d="M518.6 0L463.4 0L524.6 32.7Z" fill="#d76074" stroke="#d76074"></path><path d="M391.4 18.7L303.2 0L324.9 24.7Z" fill="#d3546a" stroke="#d3546a"></path><path d="M781.8 483.3L807.5 444L675.3 392Z" fill="#d3546a" stroke="#d3546a"></path><path d="M872.8 221.7L840.8 212L785.5 256.7Z" fill="#d76074" stroke="#d76074"></path><path d="M790.5 171.3L701.3 192L756.5 227Z" fill="#ce4760" stroke="#ce4760"></path><path d="M811.5 522.3L799.5 499.7L682.3 504.3Z" fill="#c3435b" stroke="#c3435b"></path><path d="M781.8 483.3L799.5 499.7L807.5 444Z" fill="#db6c7e" stroke="#db6c7e"></path><path d="M583.8 0L518.6 0L558.8 25.7Z" fill="#b83f55" stroke="#b83f55"></path><path d="M558.8 25.7L518.6 0L524.6 32.7Z" fill="#983346" stroke="#983346"></path><path d="M463.4 0L303.2 0L391.4 18.7Z" fill="#ad3b50" stroke="#ad3b50"></path><path d="M324.9 24.7L297.9 0L301.2 73.7Z" fill="#983346" stroke="#983346"></path><path d="M303.2 0L297.9 0L324.9 24.7Z" fill="#d3546a" stroke="#d3546a"></path><path d="M91.5 491.3L74.2 600L164.5 600Z" fill="#ce4760" stroke="#ce4760"></path><path d="M37.2 549.3L74.2 600L91.5 491.3Z" fill="#983346" stroke="#983346"></path><path d="M806.5 600L811.5 522.3L682.3 504.3Z" fill="#a3374b" stroke="#a3374b"></path><path d="M799.5 499.7L853.8 461.7L807.5 444Z" fill="#a3374b" stroke="#a3374b"></path><path d="M622.1 0L583.8 0L601.1 51.7Z" fill="#ad3b50" stroke="#ad3b50"></path><path d="M601.1 51.7L583.8 0L558.8 25.7Z" fill="#d3546a" stroke="#d3546a"></path><path d="M205.7 0L126.5 91.3L163.7 107.7Z" fill="#df7888" stroke="#df7888"></path><path d="M163.7 107.7L126.5 91.3L114.5 218Z" fill="#e38392" stroke="#e38392"></path><path d="M0 474.7L91.5 491.3L94.2 442.7Z" fill="#b83f55" stroke="#b83f55"></path><path d="M804.5 113.7L700.3 64.7L721.3 133.3Z" fill="#b83f55" stroke="#b83f55"></path><path d="M721.3 133.3L700.3 64.7L608.1 183.3Z" fill="#ce4760" stroke="#ce4760"></path><path d="M840.8 212L790.5 171.3L756.5 227Z" fill="#e38392" stroke="#e38392"></path><path d="M840.8 212L756.5 227L785.5 256.7Z" fill="#db6c7e" stroke="#db6c7e"></path><path d="M0 330.3L113.5 378.3L108.2 330.3Z" fill="#b83f55" stroke="#b83f55"></path><path d="M0 330.3L108.2 330.3L78.2 287.7Z" fill="#d76074" stroke="#d76074"></path><path d="M0 330.3L78.2 287.7L0 259.7Z" fill="#df7888" stroke="#df7888"></path><path d="M0 259.7L78.2 287.7L86.2 243Z" fill="#d3546a" stroke="#d3546a"></path><path d="M790.5 171.3L781.8 147.3L701.3 192Z" fill="#d3546a" stroke="#d3546a"></path><path d="M0 419L0 474.7L94.2 442.7Z" fill="#b83f55" stroke="#b83f55"></path><path d="M667.3 0L622.1 0L601.1 51.7Z" fill="#c3435b" stroke="#c3435b"></path><path d="M811.5 522.3L853.8 461.7L799.5 499.7Z" fill="#b83f55" stroke="#b83f55"></path><path d="M807.5 444L900 369L782.8 364Z" fill="#ce4760" stroke="#ce4760"></path><path d="M653.3 600L806.5 600L682.3 504.3Z" fill="#ad3b50" stroke="#ad3b50"></path><path d="M811.5 522.3L900 529.3L853.8 461.7Z" fill="#e38392" stroke="#e38392"></path><path d="M0 245L0 259.7L86.2 243Z" fill="#c3435b" stroke="#c3435b"></path><path d="M297.9 0L205.7 0L301.2 73.7Z" fill="#ce4760" stroke="#ce4760"></path><path d="M0 474.7L0 523.3L91.5 491.3Z" fill="#e38392" stroke="#e38392"></path><path d="M37.2 549.3L0 600L74.2 600Z" fill="#c3435b" stroke="#c3435b"></path><path d="M23.2 100.3L86.2 243L114.5 218Z" fill="#ce4760" stroke="#ce4760"></path><path d="M872.8 221.7L785.5 256.7L900 291.7Z" fill="#b83f55" stroke="#b83f55"></path><path d="M790.5 171.3L804.5 113.7L781.8 147.3Z" fill="#d3546a" stroke="#d3546a"></path><path d="M757.5 0L667.3 0L700.3 64.7Z" fill="#ad3b50" stroke="#ad3b50"></path><path d="M700.3 64.7L667.3 0L601.1 51.7Z" fill="#d76074" stroke="#d76074"></path><path d="M804.5 113.7L721.3 133.3L781.8 147.3Z" fill="#db6c7e" stroke="#db6c7e"></path><path d="M840.8 212L804.5 113.7L790.5 171.3Z" fill="#db6c7e" stroke="#db6c7e"></path><path d="M0 523.3L0 600L37.2 549.3Z" fill="#df7888" stroke="#df7888"></path><path d="M806.5 600L848.8 600L811.5 522.3Z" fill="#983346" stroke="#983346"></path><path d="M853.8 461.7L900 369L807.5 444Z" fill="#d3546a" stroke="#d3546a"></path><path d="M840.8 212L900 131.3L804.5 113.7Z" fill="#d76074" stroke="#d76074"></path><path d="M900 451.7L900 369L853.8 461.7Z" fill="#df7888" stroke="#df7888"></path><path d="M900 297.3L785.5 256.7L786.8 344.3Z" fill="#e38392" stroke="#e38392"></path><path d="M205.7 0L111.5 21.7L126.5 91.3Z" fill="#ce4760" stroke="#ce4760"></path><path d="M126.5 91.3L23.2 100.3L114.5 218Z" fill="#b83f55" stroke="#b83f55"></path><path d="M900 529.3L900 451.7L853.8 461.7Z" fill="#ce4760" stroke="#ce4760"></path><path d="M900 369L900 297.3L786.8 344.3Z" fill="#a3374b" stroke="#a3374b"></path><path d="M900 297.3L900 291.7L785.5 256.7Z" fill="#db6c7e" stroke="#db6c7e"></path><path d="M111.5 21.7L77.2 39.7L126.5 91.3Z" fill="#ce4760" stroke="#ce4760"></path><path d="M77.2 39.7L23.2 100.3L126.5 91.3Z" fill="#ad3b50" stroke="#ad3b50"></path><path d="M848.8 600L900 529.3L811.5 522.3Z" fill="#df7888" stroke="#df7888"></path><path d="M111.5 21.7L80.2 0L77.2 39.7Z" fill="#ce4760" stroke="#ce4760"></path><path d="M0 16.7L0 112.3L23.2 100.3Z" fill="#d76074" stroke="#d76074"></path><path d="M205.7 0L110.5 0L111.5 21.7Z" fill="#ce4760" stroke="#ce4760"></path><path d="M0 16.7L23.2 100.3L77.2 39.7Z" fill="#d76074" stroke="#d76074"></path><path d="M23.2 100.3L0 112.3L86.2 243Z" fill="#db6c7e" stroke="#db6c7e"></path><path d="M900 291.7L900 204L872.8 221.7Z" fill="#df7888" stroke="#df7888"></path><path d="M872.8 221.7L900 204L840.8 212Z" fill="#d76074" stroke="#d76074"></path><path d="M841.8 59.7L757.5 0L804.5 113.7Z" fill="#ad3b50" stroke="#ad3b50"></path><path d="M804.5 113.7L757.5 0L700.3 64.7Z" fill="#c3435b" stroke="#c3435b"></path><path d="M110.5 0L80.2 0L111.5 21.7Z" fill="#df7888" stroke="#df7888"></path><path d="M848.8 600L900 600L900 529.3Z" fill="#a3374b" stroke="#a3374b"></path><path d="M900 92.7L841.8 59.7L804.5 113.7Z" fill="#a3374b" stroke="#a3374b"></path><path d="M900 204L900 131.3L840.8 212Z" fill="#c3435b" stroke="#c3435b"></path><path d="M900 131.3L900 92.7L804.5 113.7Z" fill="#d76074" stroke="#d76074"></path><path d="M841.8 59.7L880.8 0L757.5 0Z" fill="#ad3b50" stroke="#ad3b50"></path><path d="M80.2 0L0 16.7L77.2 39.7Z" fill="#df7888" stroke="#df7888"></path><path d="M80.2 0L0 0L0 16.7Z" fill="#e38392" stroke="#e38392"></path><path d="M900 92.7L880.8 0L841.8 59.7Z" fill="#d3546a" stroke="#d3546a"></path><path d="M900 92.7L900 0L880.8 0Z" fill="#b83f55" stroke="#b83f55"></path></g></svg>